/* XPM */
static const char * reload_arrow_xpm[] = {
/* columns rows colors chars-per-pixel */
"16 16 3 1 ",
"  c None",
". c black",
"X c white",
/* pixels */
"                ",
"  ..........    ",
" ..XXXXXXXX..   ",
" .XXXXXXXXXX.   ",
" .XXX....XXX.   ",
" .XX.. ...XX... ",
" .XX.  .XXXXXX. ",
" .XX.   .XXXX.  ",
" .XX.    .XX.   ",
" .XX.     ..    ",
" .XX..          ",
" .XXX........   ",
" .XXXXXXXXXX.   ",
" ..XXXXXXXXX.   ",
"  ...........   ",
"                "
};
