/* XPM */
static const char* up_arrow[] = {
"16 16 3 1 ",
"  c None",
"| c black",
". c black",
"                ",
"       ||       ",
"       ||       ",
"      .  .      ",
"     .    .     ",
"     .    .     ",
"    .      .    ",
"    .      .    ",
"   .        .   ",
"   .        .   ",
"  .          .  ",
"  .          .  ",
" .            . ",
" .............. ",
"                ",
"                "};